<?xml version="1.0" standalone="no"?>
<!DOCTYPE svg PUBLIC "-//W3C//DTD SVG 20010904//EN"
 "http://www.w3.org/TR/2001/REC-SVG-20010904/DTD/svg10.dtd">
<svg version="1.0" xmlns="http://www.w3.org/2000/svg"
 width="512.000000pt" height="512.000000pt" viewBox="0 0 512.000000 512.000000"
 preserveAspectRatio="xMidYMid meet">
<metadata>
Created by potrace 1.11, written by Peter Selinger 2001-2013
</metadata>
<g transform="translate(0.000000,512.000000) scale(0.100000,-0.100000)"
fill="#000000" stroke="none">
<path d="M2379 5116 c-2 -2 -38 -6 -79 -10 -64 -6 -213 -30 -315 -51 -124 -26
-334 -97 -478 -161 -745 -335 -1299 -1031 -1456 -1829 -40 -200 -46 -267 -45
-515 0 -184 3 -241 19 -345 3 -16 7 -43 9 -60 60 -403 235 -808 494 -1144 86
-113 118 -148 237 -266 383 -381 859 -619 1420 -711 157 -26 595 -26 745 -1
523 89 929 276 1309 603 486 418 807 1033 869 1664 14 144 7 517 -12 637 -100
644 -431 1224 -927 1623 -93 75 -272 200 -286 200 -4 0 -14 6 -22 14 -20 18
-257 137 -331 166 -153 61 -375 126 -494 144 -21 4 -41 8 -45 10 -3 2 -35 7
-71 11 -36 4 -76 10 -90 12 -31 5 -446 13 -451 9z"/>
</g>
</svg>
